<svg xmlns="http://www.w3.org/2000/svg" width="40" height="48" viewBox="0 0 40 48">
  <!-- Pin background -->
  <path d="M20 47 L20 28" stroke="#5C4033" stroke-width="3" stroke-linecap="round"/>
  <circle cx="20" cy="18" r="16" fill="#F4E4BC" stroke="#5C4033" stroke-width="2"/>
  <!-- Water waves -->
  <path d="M6 26 Q10 24 14 26 Q18 28 22 26 Q26 24 30 26 Q34 28 34 26"
        fill="none" stroke="#4A90A4" stroke-width="1.5" stroke-linecap="round"/>
  <!-- Boat hull -->
  <path d="M8 24 L12 24 L10 20 L30 20 L28 24 L32 24 L28 28 L12 28 Z"
        fill="#8B4513" stroke="#5C4033" stroke-width="1.5"/>
  <!-- Mast -->
  <line x1="20" y1="20" x2="20" y2="8" stroke="#5C4033" stroke-width="2"/>
  <!-- Sail -->
  <path d="M20 8 L20 18 L28 18 Z" fill="white" stroke="#5C4033" stroke-width="1"/>
  <!-- Flag -->
  <path d="M20 8 L20 6 L24 7 L20 8" fill="#A52A2A" stroke="#5C4033" stroke-width="0.5"/>
</svg>
