<svg xmlns="http://www.w3.org/2000/svg" width="40" height="48" viewBox="0 0 40 48">
  <!-- Pin background -->
  <path d="M20 47 L20 28" stroke="#5C4033" stroke-width="3" stroke-linecap="round"/>
  <circle cx="20" cy="18" r="16" fill="#F4E4BC" stroke="#5C4033" stroke-width="2"/>
  <!-- Boot - sleeker design -->
  <path d="M12 20 L12 12 Q12 9 15 9 L21 9 Q24 9 24 12 L24 16 L28 16 L28 20 Q28 22 24 22 L16 22 Q12 22 12 20 Z"
        fill="white" stroke="#5C4033" stroke-width="1.5"/>
  <!-- Boot ankle/cuff - thinner -->
  <path d="M13 11 L23 11" stroke="#5C4033" stroke-width="0.75"/>
  <!-- Laces -->
  <line x1="16" y1="13" x2="19" y2="13" stroke="#A52A2A" stroke-width="0.75"/>
  <line x1="15.5" y1="15.5" x2="19.5" y2="15.5" stroke="#A52A2A" stroke-width="0.75"/>
  <line x1="15" y1="18" x2="20" y2="18" stroke="#A52A2A" stroke-width="0.75"/>
  <!-- Blade holder -->
  <rect x="15" y="22" width="3" height="2" fill="#5C4033"/>
  <rect x="22" y="22" width="3" height="2" fill="#5C4033"/>
  <!-- Blade -->
  <path d="M13 25 L27 25 Q29 25 29 26 L29 26 Q29 27 27 27 L13 27 Q11 27 11 26 L11 26 Q11 25 13 25"
        fill="#C0C0C0" stroke="#5C4033" stroke-width="0.75"/>
</svg>
