<svg xmlns="http://www.w3.org/2000/svg" width="40" height="48" viewBox="0 0 40 48">
  <!-- Pin background -->
  <path d="M20 47 L20 28" stroke="#5C4033" stroke-width="3" stroke-linecap="round"/>
  <circle cx="20" cy="18" r="16" fill="#F4E4BC" stroke="#5C4033" stroke-width="2"/>
  <!-- Lollipop stick -->
  <line x1="20" y1="18" x2="20" y2="28" stroke="#D4A76A" stroke-width="2.5" stroke-linecap="round"/>
  <!-- Lollipop base -->
  <circle cx="20" cy="13" r="9" fill="white" stroke="#5C4033" stroke-width="1.5"/>
  <!-- Rainbow spiral stripes -->
  <path d="M20 4 A9 9 0 0 1 29 13" fill="none" stroke="#FF0000" stroke-width="2"/>
  <path d="M29 13 A9 9 0 0 1 20 22" fill="none" stroke="#FF8C00" stroke-width="2"/>
  <path d="M20 22 A9 9 0 0 1 11 13" fill="none" stroke="#FFD700" stroke-width="2"/>
  <path d="M11 13 A9 9 0 0 1 20 4" fill="none" stroke="#32CD32" stroke-width="2"/>
  <!-- Inner spiral -->
  <circle cx="20" cy="13" r="6" fill="none" stroke="#00BFFF" stroke-width="2"/>
  <circle cx="20" cy="13" r="3" fill="none" stroke="#9370DB" stroke-width="2"/>
  <circle cx="20" cy="13" r="1" fill="#FF69B4"/>
</svg>
